<svg id="Слой_1" data-name="Слой 1" xmlns="http://www.w3.org/2000/svg" viewBox="0 0 595.28 500.58"><defs><style>.cls-1{fill:#5b5b5b;}</style></defs><path class="cls-1" d="M386.15,331.87h0c-1.09,0-109.59-.19-137.77,0a22.84,22.84,0,0,1-18.87-9.09c-4.79-6.57-5.11-14.72-.91-23a13.72,13.72,0,0,0,1.27-8.73L207,178.37l-29-6.05a7.07,7.07,0,0,1,2.89-13.85l33.57,7a7.1,7.1,0,0,1,5.5,5.52l23.8,117.39a28.14,28.14,0,0,1-2.56,17.86c-2.27,4.45-1.33,6.71-.26,8.19a8.9,8.9,0,0,0,7.27,3.27h.08c28.21-.17,136.78,0,137.89,0a7.08,7.08,0,0,1,0,14.15Z"/><circle class="cls-1" cx="260.15" cy="355.77" r="17.28"/><circle class="cls-1" cx="370.64" cy="355.77" r="17.28"/><path class="cls-1" d="M258.24,291.13a7.08,7.08,0,0,1-7-5.9l-15.38-91.75a7.07,7.07,0,0,1,7-8.24h173a7.07,7.07,0,0,1,6.94,8.47L406.9,273.15a7.06,7.06,0,0,1-6.32,5.66l-141.71,12.3C258.66,291.13,258.45,291.13,258.24,291.13Zm-7-91.74,12.92,77.05,129.91-11.27,13.17-65.78Z"/><path class="cls-1" d="M292.89,284.59a3.52,3.52,0,0,1-3.51-3.17l-9.3-88.74a3.54,3.54,0,0,1,7-.73l9.29,88.74a3.52,3.52,0,0,1-3.15,3.88Z"/><path class="cls-1" d="M364.57,277.76h-.09a3.53,3.53,0,0,1-3.45-3.62l2.08-81.91a3.54,3.54,0,0,1,7.08.18l-2.08,81.91A3.54,3.54,0,0,1,364.57,277.76Z"/><path class="cls-1" d="M329.36,280.12a3.54,3.54,0,0,1-3.53-3.37l-4-84.27a3.52,3.52,0,0,1,3.36-3.69,3.4,3.4,0,0,1,3.7,3.36l4,84.27a3.52,3.52,0,0,1-3.36,3.69Z"/><path class="cls-1" d="M248.54,225.17a3.54,3.54,0,0,1-.09-7.08l160.09-4.22h.09a3.54,3.54,0,0,1,.1,7.07l-160.09,4.23Z"/></svg>