<svg id="Слой_1" data-name="Слой 1" xmlns="http://www.w3.org/2000/svg" viewBox="0 0 595.28 500.58"><defs><style>.cls-1{fill:#5b5b5b;}</style></defs><path class="cls-1" d="M363.79,240.73H310.45a12.66,12.66,0,0,1-12.68-12.62V175a12.67,12.67,0,0,1,12.68-12.62h53.34A12.66,12.66,0,0,1,376.47,175v53.12A12.66,12.66,0,0,1,363.79,240.73Zm-53-12.94h52.69V175.32H310.78Z"/><path class="cls-1" d="M265.26,240.73H211.89a12.64,12.64,0,0,1-12.66-12.6V175a12.65,12.65,0,0,1,12.66-12.61h53.37A12.65,12.65,0,0,1,277.92,175v53.15A12.64,12.64,0,0,1,265.26,240.73Zm-53-12.94h52.69V175.32H212.23Z"/><path class="cls-1" d="M383.76,364.34h-73.7a12.62,12.62,0,0,1-12.62-12.57V278.39a12.61,12.61,0,0,1,12.62-12.57h73.7a12.6,12.6,0,0,1,12.62,12.57v73.38A12.61,12.61,0,0,1,383.76,364.34Zm-73.31-12.95h72.93V278.76H310.45Z"/><path class="cls-1" d="M265,344.18H211.48a12.58,12.58,0,0,1-12.59-12.54V278.35a12.58,12.58,0,0,1,12.59-12.53H265a12.58,12.58,0,0,1,12.59,12.53v53.29A12.58,12.58,0,0,1,265,344.18Zm-53.11-12.95h52.7V278.76h-52.7Z"/></svg>