<svg id="Слой_1" data-name="Слой 1" xmlns="http://www.w3.org/2000/svg" viewBox="0 0 595.28 500.58"><defs><style>.cls-1{fill:#5b5b5b;}</style></defs><path class="cls-1" d="M366.71,386q-1.14-11.53-2.3-23.08c-.72-7.21-1.48-14.55-4.3-21.23a20.72,20.72,0,0,0-5.58-8,22.76,22.76,0,0,0-5.29-3.09A56.46,56.46,0,0,0,332.61,326a38.65,38.65,0,0,1-7-1.09,8.89,8.89,0,0,1-5.48-4.15c-1.48-2.92-.52-6.44-.85-9.7-.13-1.38-.64-2.9-1.89-3.49a4.77,4.77,0,0,0-2-.33l-2.13,0H309.1a.24.24,0,0,0-.12,0c-.45,0-.89,0-1.34,0s-.65,0-1,0h-.13c-.44,0-.89,0-1.33.06-1.13.05-2.28.13-3.46.24a3.36,3.36,0,0,0-.82.24c-1.25.6-1.75,2.12-1.89,3.5-.32,3.26.63,6.78-.85,9.7a8.91,8.91,0,0,1-5.47,4.15,38.76,38.76,0,0,1-7,1.09,56.63,56.63,0,0,0-16.63,4.57,22.46,22.46,0,0,0-5.28,3.08,20.55,20.55,0,0,0-5.58,8.05c-2.83,6.67-3.58,14-4.3,21.22l-2.31,23.09c-.34,3.39-.33,7.54,2.58,9.31,1.48.89,3.31.71,5,.84,14.86,1.18,39.13.72,55,.59,15.11-.06,30.05-.26,44.83-.82,1.72-.07,3.55.05,5-.85C367,393.56,367.05,389.42,366.71,386Zm-36,4.73a2.76,2.76,0,1,1,2.76-2.76A2.76,2.76,0,0,1,330.75,390.75Zm0-16.09a2.76,2.76,0,1,1,2.76-2.76A2.77,2.77,0,0,1,330.75,374.66Zm0-16.1a2.76,2.76,0,1,1,2.76-2.76A2.76,2.76,0,0,1,330.75,358.56Zm0-16.09a2.76,2.76,0,1,1,2.76-2.76A2.77,2.77,0,0,1,330.75,342.47Zm17.52,48.28A2.76,2.76,0,1,1,351,388,2.75,2.75,0,0,1,348.27,390.75Zm0-16.09A2.76,2.76,0,1,1,351,371.9,2.76,2.76,0,0,1,348.27,374.66Zm0-16.1A2.76,2.76,0,1,1,351,355.8,2.75,2.75,0,0,1,348.27,358.56Zm0-16.09a2.76,2.76,0,1,1,2.75-2.76A2.76,2.76,0,0,1,348.27,342.47Z"/><path class="cls-1" d="M220.1,386.74c-7.51,0-15-.15-20.63-.69l-.71,0a7.07,7.07,0,0,1-4.1-1.15c-3.08-2.26-3.13-6.65-2.84-10.22l1.66-20c.15-1.89.32-11.89.53-24.54.75-45.17,1.4-70.35,2.68-74a20.32,20.32,0,0,1,4.57-7.88,19,19,0,0,1,4.34-3.09A38,38,0,0,1,218.34,241l1.06-.14a15.13,15.13,0,0,0,3.42-.68,4.35,4.35,0,0,0,2.53-2.24,11.52,11.52,0,0,0,.4-4.42,29,29,0,0,1,0-3.23c.2-2.39,1.09-4.09,2.57-4.94a4.38,4.38,0,0,1,1.29-.49,64.48,64.48,0,0,1,9.11-.09l2.75.09a5.17,5.17,0,0,1,2.59.6c1.48.86,2.37,2.57,2.57,4.94a27,27,0,0,1,0,3.24,9.82,9.82,0,0,0,.35,4.09,4.33,4.33,0,0,0,2.53,2.25,10.28,10.28,0,0,0,3.05.81A37.61,37.61,0,0,1,265.33,245a18.17,18.17,0,0,1,4.34,3.08,20.4,20.4,0,0,1,4.58,7.88c1.07,3,1.77,21.11,2.51,64.46a2.43,2.43,0,0,1-2.39,2.48,2.39,2.39,0,0,1-2.48-2.4c-.28-16.18-1-59.17-2.24-62.93a15.89,15.89,0,0,0-3.41-6,14,14,0,0,0-3.23-2.26,33,33,0,0,0-11.09-3.68,14.72,14.72,0,0,1-4-1,9.16,9.16,0,0,1-5.4-5,13.83,13.83,0,0,1-.73-6.18,23.25,23.25,0,0,0,0-2.64,2.74,2.74,0,0,0-.3-1.23,16.05,16.05,0,0,1-2.94.07,66.13,66.13,0,0,0-7.71,0,4,4,0,0,0-.21,1.06,23.93,23.93,0,0,0,0,2.68,15.16,15.16,0,0,1-.78,6.45,9,9,0,0,1-5.32,4.93,19.12,19.12,0,0,1-4.52,1l-1,.12a32.76,32.76,0,0,0-11.09,3.69,13.68,13.68,0,0,0-3.23,2.25,15.74,15.74,0,0,0-3.42,6c-1.25,3.87-2,48.48-2.4,72.45-.22,13.24-.38,22.81-.55,24.86l-1.65,20c-.36,4.31.39,5.54.87,5.89a3.78,3.78,0,0,0,1.41.21l1,.05c9,.87,22.89.71,34,.56l5.15-.06h0a2.44,2.44,0,0,1,0,4.88l-5.14.05C229.64,386.68,224.86,386.74,220.1,386.74Z"/><path class="cls-1" d="M377.28,151.1a3.83,3.83,0,0,0-2.64-2.63c-2.34-.63-4.59,1.11-5.58,3.16a15.11,15.11,0,0,0-1,2.88,14.84,14.84,0,0,1-.7,2.17,17,17,0,0,1-3.8,4.83c-19.75,20-35,45.62-44.05,74a220.12,220.12,0,0,0-10.12,71.71h2.42c0-1.31,0-2.61,0-3.9a217.11,217.11,0,0,1,10.06-67.06c9-28,24-53.26,43.63-73.18a24.82,24.82,0,0,0,3.27-3.8,1.28,1.28,0,0,0,.89.14c2.1-.48,5-1.14,6.75-3.31A5.48,5.48,0,0,0,377.28,151.1Zm-2.78,3.45c-1,1.23-2.65,1.8-4.57,2.28.19-.55.34-1.12.49-1.69a13.69,13.69,0,0,1,.82-2.44,3.19,3.19,0,0,1,2.42-1.92,1.34,1.34,0,0,1,.35,0,1.43,1.43,0,0,1,.95,1A3.06,3.06,0,0,1,374.5,154.55Z"/><path class="cls-1" d="M309,280.52v-.1q-.36-6.78-1.08-13.82-.4-3.92-1.17-7.94c-3.61-19.06-13.18-39.64-27.57-58.94a13.26,13.26,0,0,1-2.38-4.12,14.15,14.15,0,0,1-.32-1.84,12.13,12.13,0,0,0-.49-2.5c-.61-1.87-2.29-3.64-4.43-3.36a3.38,3.38,0,0,0-2.62,2,4.71,4.71,0,0,0,.17,4.38c1.24,2.05,3.57,2.93,5.26,3.57a1.23,1.23,0,0,0,.71,0,22.54,22.54,0,0,0,2.29,3.5c16,21.48,26,44.73,28.12,65.48q.72,7,1.07,13.64.56,10.08.28,19.6-.08,2.91-.24,5.76c0,.48-.05,1-.08,1.43h.13c.32,0,.65,0,1,0s.89,0,1.34,0c0-.42.06-.83.07-1.25A235,235,0,0,0,309,280.52ZM271.22,193a2.24,2.24,0,0,1-.06-2.05,1,1,0,0,1,.72-.62H272c.72,0,1.43.85,1.71,1.7a11.3,11.3,0,0,1,.39,2c0,.36.09.72.14,1.07A6,6,0,0,1,271.22,193Z"/><path class="cls-1" d="M318.41,201.51a3,3,0,0,0-2.89-.9,4.15,4.15,0,0,0-2.89,4.12,11,11,0,0,0,.26,2.2,11.11,11.11,0,0,1,.21,1.52,11.63,11.63,0,0,1-1,4.13c-3.69,10.57-5,28.55-5.38,46.08-.18,7.57-.2,15-.19,21.82,0,1.91,0,3.77,0,5.55,0,4.43,0,8.39,0,11.63V298c0,3.19,0,5.74,0,7.84,0,.5,0,1,.05,1.43.32,0,.65,0,1,0s.89,0,1.34,0a.24.24,0,0,1,.12,0c0-.39,0-.81-.05-1.25-.06-2.15-.06-4.82,0-8.28,0-3.25,0-7.23,0-11.67,0-1.77,0-3.6,0-5.5v-.1c0-22.27.28-52.31,5.48-67.17a19.23,19.23,0,0,0,.93-3.28,1.21,1.21,0,0,0,.55-.26c1.56-1.27,3-2.57,3.48-4.47A4.06,4.06,0,0,0,318.41,201.51Zm-1.32,3.15a5.08,5.08,0,0,1-1.71,2.36c0-.18-.06-.36-.1-.55a8.89,8.89,0,0,1-.21-1.71c0-.75.4-1.64,1-1.77l.13,0a.67.67,0,0,1,.49.25A1.67,1.67,0,0,1,317.09,204.66Z"/><path class="cls-1" d="M345.27,237.86a2.91,2.91,0,0,0-2.26-1.7,3.8,3.8,0,0,0-3.76,2.8,10.54,10.54,0,0,0-.41,2,9.18,9.18,0,0,1-.24,1.39,8.45,8.45,0,0,1-1.4,2.49c-.2.28-.4.56-.59.85-14.34,21.51-20.68,41.56-24.83,57.6l-1,3.9h2.52c4.09-16.36,10.21-37.47,25.33-60.16l.55-.79a16.59,16.59,0,0,0,1.14-1.76,1.13,1.13,0,0,0,.51-.07c1.37-.52,3.24-1.21,4.26-2.89A3.93,3.93,0,0,0,345.27,237.86ZM343,240.27a3.84,3.84,0,0,1-1.81,1.38c0-.12,0-.24.05-.36a8.37,8.37,0,0,1,.3-1.57c.21-.63.71-1.15,1.09-1.15h.05c.15,0,.28.13.37.33A1.51,1.51,0,0,1,343,240.27Z"/><path class="cls-1" d="M306.86,300.08c-.08-.69-.17-1.38-.26-2.08-2.09-15.83-6.37-34.92-18.58-55.51a10.12,10.12,0,0,1-1.51-3.48,9.38,9.38,0,0,1-.07-1.41,10,10,0,0,0-.15-2c-.32-1.61-1.59-3.25-3.39-3.25a2.92,2.92,0,0,0-2.44,1.41,4,4,0,0,0-.3,3.68c.8,1.78,2.57,2.71,3.86,3.39a1.25,1.25,0,0,0,.48.14,17,17,0,0,0,1.43,2.82c14.39,24.25,17.57,46.47,19.28,63.59.44,0,.89-.05,1.33-.06h.13c.32,0,.65,0,1,0Q307.31,303.79,306.86,300.08ZM284,238a3.94,3.94,0,0,1-1.62-1.59,1.59,1.59,0,0,1,.13-1.37.49.49,0,0,1,.4-.28c.39,0,.86.6,1,1.28a8.44,8.44,0,0,1,.1,1.59Z"/><path class="cls-1" d="M350.24,158.5a3.45,3.45,0,0,1-1.13-.17,4.58,4.58,0,0,1-2.11-1.64A20,20,0,0,1,342.52,144a5,5,0,0,1,1.05-3.47,4.67,4.67,0,0,1,1.93-1.22,13.24,13.24,0,0,1,8.54.13,20.32,20.32,0,0,1-3.24-3.31,9.93,9.93,0,0,1-2.18-6.74,3.93,3.93,0,0,1,1-2.42,4.74,4.74,0,0,1,2.94-1.24l5.35-.78c1.63-.25,3.88-.57,5.83.43s3.07,3.25,3.73,5a26.82,26.82,0,0,1,.25-5.37,4.85,4.85,0,0,1,1.89-3.44,5.21,5.21,0,0,1,2.95-.6l7.39.15a8,8,0,0,1,3.55.64c2.06,1.06,2.87,3.32,3.38,5.4s.87,4.3-.12,6.26c-.13.26-.25.54-.37.82a7.3,7.3,0,0,1-1.37,2.36l-3.42,3.69c-2,2.17-4,4.3-5.6,5.93a1.22,1.22,0,0,1-1.72-1.72c1.62-1.61,3.55-3.72,5.53-5.86,1.15-1.25,2.32-2.52,3.44-3.71a5.62,5.62,0,0,0,.9-1.64c.14-.33.28-.66.43-1,.6-1.19.41-2.69-.06-4.58-.39-1.55-.94-3.21-2.13-3.82a6.13,6.13,0,0,0-2.49-.38l-7.38-.14a3.48,3.48,0,0,0-1.61.22c-.36.23-.62.81-.78,1.78a34.83,34.83,0,0,0,0,8.65c.33,3.68.66,7.48-.43,11.17a1.17,1.17,0,0,1-1.36.86,1.22,1.22,0,0,1-1-1.25,36,36,0,0,0-2.18-13.61c-.51-1.37-1.26-3-2.57-3.72-1.16-.59-2.66-.43-4.36-.19l-5.35.79a2.77,2.77,0,0,0-1.51.49,1.66,1.66,0,0,0-.32,1,7.43,7.43,0,0,0,1.7,5,25.39,25.39,0,0,0,4.37,4.16l6.59,5.33.5.4c.81.41,1.63.79,2.48,1.12a1.22,1.22,0,0,1-.53,2.35,6.19,6.19,0,0,1-3.27-1.42c-1-.53-2-1.1-3-1.66-1.28-.74-2.56-1.47-3.88-2.11-2.59-1.24-6.37-2.45-9.66-1.24a2.26,2.26,0,0,0-1,.55A3,3,0,0,0,345,144a17.86,17.86,0,0,0,3.93,11.15,2.62,2.62,0,0,0,1,.86,3,3,0,0,0,1.18,0,61.34,61.34,0,0,0,9.43-2l2.58-.71a1.24,1.24,0,0,1,1.5.86,1.22,1.22,0,0,1-.86,1.49l-2.56.71a65.67,65.67,0,0,1-9.72,2.08A7.48,7.48,0,0,1,350.24,158.5Z"/><path class="cls-1" d="M381.42,181.38A20,20,0,0,1,370.25,178a4.71,4.71,0,0,1-1.83-2,5.07,5.07,0,0,1-.27-2.28,63.76,63.76,0,0,1,1.21-9.89l.47-2.6a1.18,1.18,0,0,1,1.41-1,1.22,1.22,0,0,1,1,1.41l-.47,2.62a61.92,61.92,0,0,0-1.18,9.6,3,3,0,0,0,.09,1.17,2.46,2.46,0,0,0,.94.89,17.56,17.56,0,0,0,11.45,2.91,3,3,0,0,0,1.82-.59,2.58,2.58,0,0,0,.46-1c.91-3.38-.64-7-2.11-9.5-.75-1.27-1.6-2.47-2.45-3.68-.64-.93-1.31-1.87-1.93-2.84a6.29,6.29,0,0,1-1.7-3.13,1.22,1.22,0,0,1,2.3-.73c.4.81.85,1.59,1.33,2.36.15.15.29.31.45.46l5.9,6.08a25.46,25.46,0,0,0,4.53,4,7.57,7.57,0,0,0,5.19,1.24,1.63,1.63,0,0,0,.95-.41,2.84,2.84,0,0,0,.35-1.55l.3-5.39c.1-1.72.12-3.23-.58-4.33s-2.51-1.84-3.93-2.22a35.81,35.81,0,0,0-13.75-1,1.18,1.18,0,0,1-1.33-.91,1.2,1.2,0,0,1,.73-1.43c3.57-1.42,7.39-1.43,11.08-1.44a34.29,34.29,0,0,0,8.63-.72c.94-.25,1.5-.56,1.7-.94a3.21,3.21,0,0,0,.07-1.62l-.8-7.34a6.09,6.09,0,0,0-.61-2.44c-.72-1.13-2.42-1.53-4-1.78s-3.33-.43-4.57.34c-.29.19-.61.36-.94.54a5.58,5.58,0,0,0-1.53,1c-1.11,1.26-2.29,2.56-3.46,3.85-1.93,2.14-3.82,4.23-5.27,6a1.21,1.21,0,1,1-1.86-1.56c1.46-1.75,3.37-3.86,5.33-6,1.15-1.28,2.33-2.58,3.43-3.83a7.51,7.51,0,0,1,2.21-1.56l.8-.45c1.87-1.16,4.11-1,6.24-.69s4.43.93,5.66,2.89a8,8,0,0,1,1,3.47l.8,7.35a5.09,5.09,0,0,1-.33,3,4.8,4.8,0,0,1-3.25,2.18,26,26,0,0,1-5.33.73c1.84.5,4.1,1.32,5.34,3.27s1.06,4.12,1,5.78l-.3,5.38a4.89,4.89,0,0,1-1,3,4,4,0,0,1-2.33,1.19,10.06,10.06,0,0,1-6.91-1.57,20.5,20.5,0,0,1-3.59-2.93,13.22,13.22,0,0,1,.9,8.5,4.81,4.81,0,0,1-1,2,5.06,5.06,0,0,1-3.37,1.36C382.67,181.35,382,181.38,381.42,181.38Z"/><path class="cls-1" d="M330.08,243.53a2.2,2.2,0,0,1-.56-.07,2.89,2.89,0,0,1-1.29-.92,11.83,11.83,0,0,1-2.91-7.34,3.05,3.05,0,0,1,.53-2.07,2.77,2.77,0,0,1,1.11-.76,7.68,7.68,0,0,1,4.93-.14,12,12,0,0,1-1.9-1.81,5.78,5.78,0,0,1-1.43-3.91,2.3,2.3,0,0,1,.51-1.45,2.73,2.73,0,0,1,1.7-.8l3.11-.58a5.66,5.66,0,0,1,3.44.12,5.06,5.06,0,0,1,2.26,2.76,14.71,14.71,0,0,1,0-3,2.84,2.84,0,0,1,1-2.07,3,3,0,0,1,1.72-.42l4.32-.09a5.15,5.15,0,0,1,2.1.3,4.52,4.52,0,0,1,2.12,3.09A5.27,5.27,0,0,1,351,228a4.7,4.7,0,0,0-.21.5,4.52,4.52,0,0,1-.74,1.4c-.62.71-1.27,1.47-1.9,2.22-1.13,1.32-2.24,2.62-3.16,3.62a.74.74,0,0,1-1,0,.72.72,0,0,1,0-1c.91-1,2-2.28,3.12-3.58.63-.75,1.28-1.51,1.91-2.23a3.51,3.51,0,0,0,.48-1c.07-.2.15-.4.23-.58a4.05,4.05,0,0,0-.14-2.67,3.34,3.34,0,0,0-1.33-2.17,3.09,3.09,0,0,0-1.46-.16l-4.32.09a1.8,1.8,0,0,0-.92.15,1.54,1.54,0,0,0-.42,1,20.25,20.25,0,0,0,.24,5.06,17.39,17.39,0,0,1,0,6.55.68.68,0,0,1-.8.54.72.72,0,0,1-.64-.71,21.22,21.22,0,0,0-1.58-7.91,3.91,3.91,0,0,0-1.59-2.11,4.27,4.27,0,0,0-2.54,0l-3.11.58a1.74,1.74,0,0,0-.86.32,1,1,0,0,0-.17.58,4.42,4.42,0,0,0,1.11,2.9,14.42,14.42,0,0,0,2.65,2.33l4,3a3.55,3.55,0,0,1,.31.23,15.36,15.36,0,0,0,1.46.59.73.73,0,0,1,.48.83.67.67,0,0,1-.74.6,3.7,3.7,0,0,1-1.94-.76c-.62-.29-1.22-.6-1.8-.91-.77-.4-1.54-.8-2.33-1.14-1.53-.66-3.78-1.29-5.67-.51a1.31,1.31,0,0,0-.53.34,1.75,1.75,0,0,0-.21,1.09,10.42,10.42,0,0,0,2.55,6.42,1.66,1.66,0,0,0,.58.48,1.49,1.49,0,0,0,.68-.05c1.11-.22,1.84-.33,2.41-.43a21.54,21.54,0,0,0,3.87-1,.73.73,0,0,1,.43,1.4,23,23,0,0,1-4.06,1c-.57.1-1.28.21-2.37.43A4.64,4.64,0,0,1,330.08,243.53Z"/><path class="cls-1" d="M347.69,256.22a11.78,11.78,0,0,1-6.6-2A2.66,2.66,0,0,1,340,253a3,3,0,0,1-.16-1.35,29.07,29.07,0,0,1,.58-4.91l.28-1.5a.74.74,0,0,1,.84-.59.72.72,0,0,1,.59.85l-.28,1.51a28.86,28.86,0,0,0-.55,4.74,1.75,1.75,0,0,0,0,.67,1.5,1.5,0,0,0,.54.52,10.46,10.46,0,0,0,6.69,1.74,1.76,1.76,0,0,0,1.06-.33,1.51,1.51,0,0,0,.27-.59c.54-2-.35-4.11-1.2-5.55-.44-.74-.93-1.45-1.42-2.16-.38-.55-.76-1.1-1.13-1.68a3.7,3.7,0,0,1-1-1.84.73.73,0,0,1,.5-.81.75.75,0,0,1,.88.38,15.7,15.7,0,0,0,.78,1.38l.25.27,3.44,3.58a14.91,14.91,0,0,0,2.64,2.34,4.35,4.35,0,0,0,3,.75,1.09,1.09,0,0,0,.55-.24,1.7,1.7,0,0,0,.2-.89l.19-3.16a4.26,4.26,0,0,0-.32-2.52,3.85,3.85,0,0,0-2.28-1.31,21,21,0,0,0-8.05-.6.75.75,0,0,1-.8-.56.72.72,0,0,1,.45-.85,17.44,17.44,0,0,1,6.5-.81,17.28,17.28,0,0,0,5.05-.39c.55-.14.87-.32,1-.54a1.9,1.9,0,0,0,0-.93l-.45-4.31a3.27,3.27,0,0,0-.34-1.42,3.31,3.31,0,0,0-2.32-1.05,3.93,3.93,0,0,0-2.66.19l-.55.31a3,3,0,0,0-.9.59l-2,2.23c-1.14,1.25-2.26,2.47-3.11,3.48a.73.73,0,0,1-1.12-.94c.87-1,2-2.27,3.16-3.53l2-2.21a4.43,4.43,0,0,1,1.3-.92,5.22,5.22,0,0,0,.47-.26,5.32,5.32,0,0,1,3.67-.39,4.55,4.55,0,0,1,3.32,1.73,4.65,4.65,0,0,1,.56,2l.45,4.31a3,3,0,0,1-.21,1.76,2.81,2.81,0,0,1-1.92,1.28,15.55,15.55,0,0,1-3,.41,5,5,0,0,1,3,1.9,5.6,5.6,0,0,1,.55,3.4l-.19,3.16a2.81,2.81,0,0,1-.58,1.78,2.3,2.3,0,0,1-1.38.69,5.78,5.78,0,0,1-4.06-.94,12.06,12.06,0,0,1-2-1.66,7.71,7.71,0,0,1,.47,4.91,2.76,2.76,0,0,1-.61,1.19,3.08,3.08,0,0,1-2,.79C348.38,256.2,348,256.22,347.69,256.22Z"/><path class="cls-1" d="M263.28,222a5.31,5.31,0,0,1-3.54-1,4.72,4.72,0,0,1-1.21-1.93,13.18,13.18,0,0,1,.13-8.54,21.08,21.08,0,0,1-3.31,3.23,10.05,10.05,0,0,1-6.74,2.18,3.93,3.93,0,0,1-2.43-1A4.71,4.71,0,0,1,245,212l-.79-5.34c-.24-1.64-.57-3.89.44-5.84s3.25-3.06,5-3.72h0a25.64,25.64,0,0,1-5.39-.25,4.84,4.84,0,0,1-3.43-1.88,5.19,5.19,0,0,1-.6-3l.14-7.39a7.84,7.84,0,0,1,.65-3.54c1.06-2.06,3.32-2.87,5.39-3.39s4.32-.86,6.27.12c.26.14.55.26.84.38a7.67,7.67,0,0,1,2.34,1.36c1.22,1.15,2.51,2.34,3.78,3.51,2.14,2,4.23,3.9,5.84,5.51a1.22,1.22,0,1,1-1.72,1.73c-1.6-1.6-3.66-3.5-5.77-5.44-1.28-1.19-2.58-2.38-3.8-3.54a5.65,5.65,0,0,0-1.63-.88c-.33-.15-.67-.29-1-.45-1.3-.66-3-.3-4.58.07s-3.2.94-3.81,2.13a5.79,5.79,0,0,0-.38,2.48l-.14,7.39a3.32,3.32,0,0,0,.21,1.6c.24.37.82.62,1.78.79a34.44,34.44,0,0,0,8.66-.06c3.68-.32,7.48-.66,11.16.43a1.21,1.21,0,0,1,.86,1.36,1.25,1.25,0,0,1-1.25,1,35.14,35.14,0,0,0-13.61,2.18c-1.45.54-3,1.27-3.71,2.57-.6,1.15-.44,2.65-.19,4.36l.79,5.34a2.91,2.91,0,0,0,.48,1.51,1.64,1.64,0,0,0,1,.32,7.78,7.78,0,0,0,5-1.7,25,25,0,0,0,4.13-4.33l5.36-6.62.39-.49a26.34,26.34,0,0,0,1.12-2.49,1.22,1.22,0,0,1,1.4-.75,1.2,1.2,0,0,1,.95,1.27,6.1,6.1,0,0,1-1.42,3.3c-.53,1-1.1,2-1.65,3-.74,1.28-1.47,2.56-2.11,3.89-1.24,2.58-2.46,6.36-1.25,9.65a2.62,2.62,0,0,0,.55,1,3.45,3.45,0,0,0,1.92.43,17.89,17.89,0,0,0,11.09-3.93,2.54,2.54,0,0,0,.87-1,3.13,3.13,0,0,0,0-1.17,60.35,60.35,0,0,0-2-9.45l-.7-2.57a1.22,1.22,0,0,1,2.35-.63l.71,2.55a65.55,65.55,0,0,1,2.08,9.73,5,5,0,0,1-.06,2.3,4.73,4.73,0,0,1-1.65,2.12A20.13,20.13,0,0,1,263.28,222Z"/><path class="cls-1" d="M293.88,196.1c-.23,0-.46,0-.68,0a63,63,0,0,1-9.89-1.2l-2.59-.47a1.22,1.22,0,1,1,.43-2.4l2.59.48a63.84,63.84,0,0,0,9.61,1.17,3.18,3.18,0,0,0,1.17-.08,2.61,2.61,0,0,0,.91-.95,17.69,17.69,0,0,0,2.9-11.45,3,3,0,0,0-.59-1.82,2.67,2.67,0,0,0-1-.46c-3.39-.91-7,.65-9.51,2.11-1.26.76-2.48,1.6-3.68,2.45-.93.65-1.87,1.31-2.84,1.93a6.33,6.33,0,0,1-3.13,1.71,1.22,1.22,0,0,1-.74-2.3,24,24,0,0,0,2.37-1.34l.46-.44,6.08-5.91a24.69,24.69,0,0,0,4-4.53,7.42,7.42,0,0,0,1.23-5.18,1.69,1.69,0,0,0-.4-1,2.94,2.94,0,0,0-1.55-.35l-5.39-.3c-1.73-.1-3.23-.12-4.33.58s-1.84,2.51-2.22,3.93a35.84,35.84,0,0,0-.95,13.75,1.21,1.21,0,0,1-.9,1.33,1.23,1.23,0,0,1-1.44-.73c-1.42-3.57-1.42-7.39-1.43-11.08a34.63,34.63,0,0,0-.73-8.62c-.25-.95-.56-1.51-.94-1.7a3.32,3.32,0,0,0-1.62-.08l-7.34.81a5.81,5.81,0,0,0-2.44.6c-1.13.72-1.53,2.42-1.78,4s-.4,3.36.35,4.56c.18.29.34.6.51.91a5.65,5.65,0,0,0,1.05,1.56c1.22,1.08,2.5,2.24,3.75,3.37,2.17,2,4.29,3.89,6,5.35a1.22,1.22,0,0,1-1.57,1.88c-1.78-1.49-3.92-3.43-6.12-5.42-1.25-1.13-2.51-2.28-3.73-3.35a7.9,7.9,0,0,1-1.58-2.24c-.14-.27-.28-.53-.43-.78-1.17-1.87-1-4.1-.69-6.23s.94-4.43,2.89-5.66a7.77,7.77,0,0,1,3.48-1l7.34-.8a5,5,0,0,1,3,.31,4.85,4.85,0,0,1,2.19,3.26,26.11,26.11,0,0,1,.74,5.33h0c.49-1.83,1.31-4.1,3.26-5.34s4.12-1.06,5.77-1l5.4.3a4.86,4.86,0,0,1,3,1,3.94,3.94,0,0,1,1.18,2.34,9.88,9.88,0,0,1-1.56,6.9,20.82,20.82,0,0,1-2.92,3.59,13.12,13.12,0,0,1,8.49-.9,4.71,4.71,0,0,1,2,1,5.15,5.15,0,0,1,1.35,3.35,20.13,20.13,0,0,1-3.31,13,4.7,4.7,0,0,1-2,1.83A4,4,0,0,1,293.88,196.1Z"/><circle class="cls-1" cx="242.75" cy="265.43" r="2.76"/><circle class="cls-1" cx="260.26" cy="265.43" r="2.76"/><circle class="cls-1" cx="260.26" cy="281.53" r="2.76"/><circle class="cls-1" cx="242.75" cy="281.53" r="2.76"/><circle class="cls-1" cx="242.75" cy="297.62" r="2.76"/><circle class="cls-1" cx="260.26" cy="297.62" r="2.76"/><circle class="cls-1" cx="260.26" cy="313.72" r="2.76"/><circle class="cls-1" cx="242.75" cy="313.72" r="2.76"/><circle class="cls-1" cx="242.75" cy="329.81" r="2.76"/><circle class="cls-1" cx="242.75" cy="345.91" r="2.76"/></svg>