<svg id="Слой_1" data-name="Слой 1" xmlns="http://www.w3.org/2000/svg" viewBox="0 0 595.28 500.58"><defs><style>.cls-1{fill:#5b5b5b;}</style></defs><path class="cls-1" d="M297.63,375.92a9.81,9.81,0,0,1-6.95-2.88l-95.5-95.5a9,9,0,0,1-1-1.2c-1-1.14-8.22-8.43-8.23-8.44a10.22,10.22,0,0,1-1-1.12,67.68,67.68,0,1,1,112.65-74.84,67.68,67.68,0,1,1,112.66,74.84c-.58.71-7.27,8.34-8.38,9.75-.24.3-.62.74-.88,1-30.22,30.21-96.5,95.55-96.5,95.55A9.78,9.78,0,0,1,297.63,375.92Zm-88.26-112,88.31,88.3c17.72-17.48,64.89-64,89.19-88.34,2.19-2.62,8.07-9.37,8.07-9.37A47.4,47.4,0,0,0,403.52,227a48,48,0,1,0-96.06,0,9.83,9.83,0,1,1-19.66,0,48,48,0,1,0-87.32,27.62C206.31,260.59,208.46,262.89,209.37,263.94Z"/></svg>