<svg id="Слой_1" data-name="Слой 1" xmlns="http://www.w3.org/2000/svg" viewBox="0 0 595.28 500.58"><defs><style>.cls-1{fill:#5b5b5b;}</style></defs><path class="cls-1" d="M433.83,368.84H161.47a19,19,0,0,1-19.06-19l-.07-3.79c-.06-1.12-.14-2.59-.24-3.21l-.08-.5c-.72-4.56-1.12-7.06-3.26-10.47-2.42-3.83-5.53-6.38-9-9.08a34.9,34.9,0,1,1,55.86-33.38l.06.71v24.47a4.34,4.34,0,0,1-8.67,0v-24.1A26.31,26.31,0,1,0,135,316c4,3.09,7.9,6.29,11.08,11.31s3.72,8.8,4.49,13.72l.08.49c.13.8.25,2.65.33,4.07l.09,4.29a10.38,10.38,0,0,0,10.39,10.34H433.83a10.38,10.38,0,0,0,10.38-10.34l.1-4.15c.08-1.43.21-3.39.34-4.21l.07-.46c.78-4.94,1.39-8.83,4.49-13.74s7.05-8.22,11.08-11.32a26.25,26.25,0,1,0-42-25.47v24.1a4.34,4.34,0,0,1-8.67,0l.06-25.18a35,35,0,1,1,55.86,33.38c-3.64,2.8-6.62,5.25-9,9.08-2.15,3.41-2.55,5.92-3.27,10.48l-.07.48c-.11.66-.19,2.22-.25,3.36l-.08,3.67A19,19,0,0,1,433.83,368.84Z"/><path class="cls-1" d="M397.6,326H196.48a3.24,3.24,0,1,1,0-6.47H397.6a3.24,3.24,0,1,1,0,6.47Z"/><rect class="cls-1" x="166.52" y="362.22" width="29.96" height="12.7" rx="0.59"/><rect class="cls-1" x="396.51" y="362.22" width="29.96" height="12.7" rx="0.59"/><path class="cls-1" d="M297.65,255.9a4.32,4.32,0,0,1-4.33-4.32v-16.4a36.54,36.54,0,0,0-36.58-36.42H192.67a36.79,36.79,0,0,0-36.82,36.66v16.16a4.33,4.33,0,0,1-8.66,0V235.42a45.44,45.44,0,0,1,45.48-45.29h64.07A45.2,45.2,0,0,1,302,235.18v16.4A4.33,4.33,0,0,1,297.65,255.9Z"/><path class="cls-1" d="M297.65,289.53a4.32,4.32,0,0,1-4.33-4.31v-50a45.2,45.2,0,0,1,45.25-45.05h64.31a45.2,45.2,0,0,1,45.24,45.05v16.4a4.34,4.34,0,0,1-8.67,0v-16.4a36.54,36.54,0,0,0-36.57-36.42H338.57A36.54,36.54,0,0,0,302,235.18v50A4.32,4.32,0,0,1,297.65,289.53Z"/><ellipse class="cls-1" cx="203.15" cy="239.83" rx="6.67" ry="6.64"/><ellipse class="cls-1" cx="257.75" cy="239.83" rx="6.67" ry="6.64"/><ellipse class="cls-1" cx="257.75" cy="278.58" rx="6.67" ry="6.64"/><ellipse class="cls-1" cx="203.15" cy="278.58" rx="6.67" ry="6.64"/><ellipse class="cls-1" cx="336.34" cy="239.83" rx="6.67" ry="6.64"/><ellipse class="cls-1" cx="390.93" cy="239.83" rx="6.67" ry="6.64"/><ellipse class="cls-1" cx="390.93" cy="278.58" rx="6.67" ry="6.64"/><ellipse class="cls-1" cx="336.34" cy="278.58" rx="6.67" ry="6.64"/></svg>