<svg id="Слой_1" data-name="Слой 1" xmlns="http://www.w3.org/2000/svg" viewBox="0 0 595.28 500.58"><defs><style>.cls-1{fill:#5b5b5b;}</style></defs><path class="cls-1" d="M382.6,369.63H212.68c-14.43,0-26.17-11.42-26.17-25.46V266a25,25,0,0,1,7.59-17.94l85-83.24c9.9-9.7,27.24-9.7,37.13,0l85,83.23a25,25,0,0,1,7.6,17.95v78.17C408.76,358.21,397,369.63,382.6,369.63Zm-85-198.81a12,12,0,0,0-8.44,3.44l-85,83.23a12,12,0,0,0-3.58,8.51v78.17a12,12,0,0,0,12,11.94H382.6a12,12,0,0,0,12-11.94V266a12,12,0,0,0-3.59-8.52l-84.94-83.22A12,12,0,0,0,297.65,170.82Z"/><path class="cls-1" d="M440.13,297a7.25,7.25,0,0,1-5-1.94L297.56,165.86,160.11,295a7.33,7.33,0,0,1-10-.08,6.53,6.53,0,0,1,.09-9.55L292.6,151.57a7.3,7.3,0,0,1,9.92,0L445.09,285.38a6.54,6.54,0,0,1,.08,9.55A7.18,7.18,0,0,1,440.13,297Z"/><rect class="cls-1" x="275.77" y="283.28" width="43.73" height="79.27"/></svg>