<svg width="149" height="38" viewBox="0 0 149 38" fill="none" xmlns="http://www.w3.org/2000/svg">
<path d="M3.18371 7.04171C2.32503 7.04171 1.57368 6.73312 0.929672 6.11594C0.312495 5.47193 0.00390625 4.72058 0.00390625 3.8619C0.00390625 3.00322 0.312495 2.25187 0.929672 1.60786C1.57368 0.963851 2.32503 0.641846 3.18371 0.641846C4.06923 0.641846 4.82057 0.963851 5.43775 1.60786C6.08176 2.25187 6.40377 3.00322 6.40377 3.8619C6.40377 4.72058 6.08176 5.47193 5.43775 6.11594C4.82057 6.73312 4.06923 7.04171 3.18371 7.04171ZM5.80001 29.5821H0.607667V9.45675H5.80001V29.5821Z" fill="black"/>
<path d="M20.4138 30.1456C17.65 30.1456 15.3154 29.5284 13.4102 28.2941C11.505 27.0597 10.1499 25.3558 9.3449 23.1822L14.0945 20.4049C15.1947 23.2762 17.3548 24.7118 20.5748 24.7118C22.0775 24.7118 23.2046 24.4434 23.9559 23.9068C24.7073 23.3701 25.0829 22.6456 25.0829 21.7332C25.0829 20.7404 24.6402 19.9756 23.7547 19.4389C22.8691 18.8754 21.2859 18.2717 19.0051 17.6276C16.5364 16.8763 14.5909 16.0042 13.1687 15.0113C11.3977 13.6965 10.5122 11.7645 10.5122 9.21525C10.5122 6.6392 11.4111 4.61325 13.209 3.13739C15.0068 1.60786 17.1938 0.843099 19.7698 0.843099C22.0239 0.843099 24.023 1.39319 25.7672 2.49338C27.5114 3.59356 28.8665 5.14993 29.8325 7.16246L25.1634 9.85926C24.0364 7.44421 22.2385 6.23669 19.7698 6.23669C18.6428 6.23669 17.7439 6.50503 17.073 7.04171C16.4022 7.55155 16.0668 8.2224 16.0668 9.05424C16.0668 9.93976 16.429 10.6643 17.1535 11.2278C17.9586 11.7913 19.3807 12.3816 21.4201 12.9988L23.3521 13.6428C23.701 13.7502 24.3047 13.9782 25.1634 14.3271C25.9684 14.6223 26.5588 14.904 26.9345 15.1724C28.2493 15.9774 29.1348 16.8092 29.591 17.6679C30.2887 18.7949 30.6375 20.1232 30.6375 21.6527C30.6375 24.2556 29.6849 26.3218 27.7797 27.8513C25.8745 29.3808 23.4192 30.1456 20.4138 30.1456Z" fill="black"/>
<path d="M49.8645 11.8315V9.45675H55.0568V29.5821H49.8645V27.2073C48.3081 29.1662 46.1212 30.1456 43.3036 30.1456C40.6202 30.1456 38.3125 29.1259 36.3805 27.0866C34.4753 25.0204 33.5227 22.498 33.5227 19.5194C33.5227 16.5677 34.4753 14.0587 36.3805 11.9925C38.3125 9.92634 40.6202 8.89324 43.3036 8.89324C46.1212 8.89324 48.3081 9.87267 49.8645 11.8315ZM40.2848 23.625C41.3313 24.6715 42.6596 25.1948 44.2696 25.1948C45.8796 25.1948 47.2079 24.6715 48.2544 23.625C49.3278 22.5516 49.8645 21.1831 49.8645 19.5194C49.8645 17.8557 49.3278 16.5006 48.2544 15.4541C47.2079 14.3808 45.8796 13.8441 44.2696 13.8441C42.6596 13.8441 41.3313 14.3808 40.2848 15.4541C39.2383 16.5006 38.715 17.8557 38.715 19.5194C38.715 21.1831 39.2383 22.5516 40.2848 23.625Z" fill="black"/>
<path d="M70.9549 8.89324C73.1821 8.89324 74.9934 9.63117 76.3887 11.107C77.8378 12.6097 78.5623 14.6491 78.5623 17.2251V29.5821H73.3699V17.8691C73.3699 16.5543 73.0077 15.5346 72.2832 14.8101C71.5855 14.0856 70.6195 13.7233 69.3851 13.7233C68.0166 13.7233 66.9298 14.1527 66.1248 15.0113C65.3466 15.8432 64.9575 17.0775 64.9575 18.7144V29.5821H59.7652V9.45675H64.9575V11.7108C66.1919 9.83242 68.191 8.89324 70.9549 8.89324Z" fill="black"/>
<path d="M98.2508 11.8315V1.40661H103.443V29.5821H98.2508V27.2073C96.7213 29.1662 94.5478 30.1456 91.7302 30.1456C89.02 30.1456 86.6989 29.1259 84.7669 27.0866C82.8617 25.0204 81.9091 22.498 81.9091 19.5194C81.9091 16.5677 82.8617 14.0587 84.7669 11.9925C86.6989 9.92634 89.02 8.89324 91.7302 8.89324C94.5478 8.89324 96.7213 9.87267 98.2508 11.8315ZM88.6712 23.625C89.7714 24.6715 91.1131 25.1948 92.6963 25.1948C94.3063 25.1948 95.6345 24.6715 96.6811 23.625C97.7276 22.5516 98.2508 21.1831 98.2508 19.5194C98.2508 17.8557 97.7276 16.5006 96.6811 15.4541C95.6345 14.3808 94.3063 13.8441 92.6963 13.8441C91.0862 13.8441 89.7445 14.3808 88.6712 15.4541C87.6247 16.5006 87.1014 17.8557 87.1014 19.5194C87.1014 21.1831 87.6247 22.5516 88.6712 23.625Z" fill="black"/>
<path d="M116.846 22.981L121.314 9.45675H126.868L119.543 29.5821C118.496 32.4802 117.101 34.5732 115.356 35.8612C113.639 37.1761 111.492 37.7664 108.916 37.6322V32.8022C110.285 32.829 111.385 32.5338 112.217 31.9166C113.049 31.2995 113.706 30.3066 114.189 28.9381L105.938 9.45675H111.613L116.846 22.981Z" fill="black"/>
<path d="M143.808 11.8315V9.45675H149V37.6322H143.808V27.2073C142.279 29.1662 140.105 30.1456 137.287 30.1456C134.577 30.1456 132.256 29.1259 130.324 27.0866C128.419 25.0204 127.466 22.498 127.466 19.5194C127.466 16.5677 128.419 14.0587 130.324 11.9925C132.256 9.92634 134.577 8.89324 137.287 8.89324C140.105 8.89324 142.279 9.87267 143.808 11.8315ZM134.228 23.625C135.329 24.6715 136.67 25.1948 138.253 25.1948C139.863 25.1948 141.192 24.6715 142.238 23.625C143.285 22.5516 143.808 21.1831 143.808 19.5194C143.808 17.8557 143.285 16.5006 142.238 15.4541C141.192 14.3808 139.863 13.8441 138.253 13.8441C136.643 13.8441 135.302 14.3808 134.228 15.4541C133.182 16.5006 132.659 17.8557 132.659 19.5194C132.659 21.1831 133.182 22.5516 134.228 23.625Z" fill="black"/>
</svg>
