<svg id="Слой_1" data-name="Слой 1" xmlns="http://www.w3.org/2000/svg" viewBox="0 0 595.28 500.58"><defs><style>.cls-1{fill:#5b5b5b;}</style></defs><path class="cls-1" d="M368.47,251.2h-142A12,12,0,0,1,215,235.36l26.72-79.58a23,23,0,0,1,21.86-15.68h69.26A22.93,22.93,0,0,1,354.79,156l25.49,79.07a12.36,12.36,0,0,1-11.81,16.12ZM263.62,148.73A14.35,14.35,0,0,0,250,158.51l-26.72,79.58a3.4,3.4,0,0,0,3.25,4.48h142a3.71,3.71,0,0,0,3.55-4.85l-25.49-79.07a14.29,14.29,0,0,0-13.65-9.92Z"/><rect class="cls-1" x="222.25" y="217.7" width="151.02" height="8.63"/><rect class="cls-1" x="222.25" y="224.17" width="151.02" height="8.63"/><path class="cls-1" d="M359.28,367.26H234.63a5.76,5.76,0,0,1-4.35-2,5.61,5.61,0,0,1-1.37-4.48A25.17,25.17,0,0,1,253.82,339h86.26A25.18,25.18,0,0,1,365,360.83a5.67,5.67,0,0,1-1.38,4.47A5.78,5.78,0,0,1,359.28,367.26ZM237.5,361.93h0Zm.79-3.3H355.62a16.52,16.52,0,0,0-15.54-11H253.82A16.51,16.51,0,0,0,238.29,358.63Z"/><path class="cls-1" d="M325.9,347.61h-58l-1.12-.79A52.06,52.06,0,0,1,253.5,275l.37-.47a59.21,59.21,0,0,0,14-27.86l.71-3.46h56.76l.7,3.46a59.4,59.4,0,0,0,14,27.94l.37.48A52,52,0,0,1,327,346.82ZM270.72,339h52.39a43.42,43.42,0,0,0,10.28-58.83,68.12,68.12,0,0,1-15.08-28.3H275.56a68,68,0,0,1-15,28.21A43.38,43.38,0,0,0,270.72,339Z"/><rect class="cls-1" x="359.98" y="246.82" width="4.33" height="22.73"/><ellipse class="cls-1" cx="362.15" cy="271.81" rx="6.67" ry="6.64"/></svg>