<svg id="Слой_1" data-name="Слой 1" xmlns="http://www.w3.org/2000/svg" viewBox="0 0 595.28 500.58"><defs><style>.cls-1{fill:#5b5b5b;}</style></defs><path class="cls-1" d="M280.24,194.15l-28.63.21L223,194.15c1.81,0,17.94-.45,25.94-16V175.5a24.75,24.75,0,0,0-49.49,0v78.33a10.34,10.34,0,0,0-5.37,3.72V175.5a30.12,30.12,0,0,1,60.23,0v2.64C262.29,193.7,278.43,194.15,280.24,194.15Z"/><path class="cls-1" d="M240.68,203.17h-.11a1,1,0,0,1-.86-1l.54-4.7a1,1,0,0,1,1.08-.83,1,1,0,0,1,.86,1l-.54,4.69A1,1,0,0,1,240.68,203.17Z"/><path class="cls-1" d="M235.63,247h-.11a1,1,0,0,1-.86-1l.94-8.12a1,1,0,0,1,1.07-.84,1,1,0,0,1,.87,1l-.94,8.12A1,1,0,0,1,235.63,247Zm1.69-14.62h-.11a1,1,0,0,1-.87-1l.94-8.12a1,1,0,0,1,1.08-.83,1,1,0,0,1,.86,1l-.94,8.12A1,1,0,0,1,237.32,232.41ZM239,217.79h-.11a1,1,0,0,1-.86-1l.93-8.12a1,1,0,0,1,1.08-.83,1,1,0,0,1,.86,1L240,217A1,1,0,0,1,239,217.79Z"/><path class="cls-1" d="M234.35,258.22h-.11a1,1,0,0,1-.87-1l.54-4.69a1,1,0,0,1,1.08-.84,1,1,0,0,1,.86,1l-.54,4.7A1,1,0,0,1,234.35,258.22Z"/><path class="cls-1" d="M264.3,203.17a1,1,0,0,1-1-.84l-.54-4.69a1,1,0,0,1,.86-1,1,1,0,0,1,1.08.83l.54,4.7a1,1,0,0,1-.86,1Z"/><path class="cls-1" d="M269.35,247a1,1,0,0,1-1-.84l-.93-8.12a1,1,0,0,1,.86-1,1,1,0,0,1,1.08.84l.93,8.12a1,1,0,0,1-.86,1Zm-1.68-14.62a1,1,0,0,1-1-.84l-.94-8.12a1,1,0,0,1,.87-1,1,1,0,0,1,1.07.83l.94,8.12a1,1,0,0,1-.86,1ZM266,217.79a1,1,0,0,1-1-.84l-.94-8.12a1,1,0,0,1,.86-1,1,1,0,0,1,1.08.83l.94,8.12a1,1,0,0,1-.87,1Z"/><path class="cls-1" d="M270.64,258.22a1,1,0,0,1-1-.84l-.54-4.7a1,1,0,0,1,.86-1,1,1,0,0,1,1.08.84l.54,4.69a1,1,0,0,1-.86,1Z"/><path class="cls-1" d="M252.47,203.22a1,1,0,0,1-1-.95v-4.73a1,1,0,0,1,1-.95h0a1,1,0,0,1,1,.95v4.73a1,1,0,0,1-1,.95Z"/><path class="cls-1" d="M252.51,247.42a1,1,0,0,1-1-.94v-8.19a1,1,0,0,1,1-.95h0a1,1,0,0,1,1,.95v8.18a1,1,0,0,1-1,.95Zm0-14.73a1,1,0,0,1-1-.95v-8.19a1,1,0,0,1,1-.94h0a1,1,0,0,1,1,.94v8.19a1,1,0,0,1-1,.95Zm0-14.74a1,1,0,0,1-1-.94v-8.19a1,1,0,0,1,1-.95h0a1,1,0,0,1,1,.95V217a1,1,0,0,1-1,.95Z"/><path class="cls-1" d="M252.52,258.7a1,1,0,0,1-1-.95V253a1,1,0,0,1,1-.94h0a1,1,0,0,1,1,.94v4.73a1,1,0,0,1-1,.95Z"/><path class="cls-1" d="M324.38,260.14a11.37,11.37,0,0,0-8.17,3.48,9.85,9.85,0,0,1,.89,2.37,9.2,9.2,0,0,1,16.3,3.7h2.27A11.46,11.46,0,0,0,324.38,260.14Z"/><path class="cls-1" d="M357.41,264.27a4.88,4.88,0,0,1,.48-2,12.16,12.16,0,0,0-19.9,7.23h2.41a9.8,9.8,0,0,1,17-4.32C357.43,264.85,357.41,264.56,357.41,264.27Z"/><path class="cls-1" d="M292.67,269.69a11.11,11.11,0,0,1-.17-1.65,12,12,0,0,1,24.06,0,12.64,12.64,0,0,1-.16,1.65h1.75a12.63,12.63,0,0,0,.17-1.65,13.79,13.79,0,0,0-27.57,0,14.64,14.64,0,0,0,.16,1.65Z"/><path class="cls-1" d="M215.77,256.48A15.34,15.34,0,0,0,190.14,261a4.77,4.77,0,0,1,.93,1c.2.32.4.65.61,1a13.22,13.22,0,0,1,22.49-5,13,13,0,0,1,3.36,9.5,13.21,13.21,0,0,1-.35,2.28h2.16a14.08,14.08,0,0,0,.34-2.16A15.19,15.19,0,0,0,215.77,256.48Z"/><path class="cls-1" d="M175.44,269.69c0-.32-.1-.64-.1-1a8.69,8.69,0,0,1,17.37,0,7.77,7.77,0,0,1-.1,1h2.15c0-.32.1-.64.1-1a10.84,10.84,0,0,0-21.67,0c0,.33.07.65.1,1Z"/><path class="cls-1" d="M401.13,254.32a15.45,15.45,0,0,0-11,4.63,4.9,4.9,0,0,1,1,2.57,13,13,0,0,1,23.11,8.17h2.4A15.44,15.44,0,0,0,401.13,254.32Z"/><path class="cls-1" d="M358.39,269.69a16.36,16.36,0,0,1-.56-4.05,16.79,16.79,0,0,1,33.57,0,16.36,16.36,0,0,1-.56,4.05h3a19.33,19.33,0,0,0,.43-4.05,19.69,19.69,0,0,0-39.38,0,19.33,19.33,0,0,0,.44,4.05Z"/><path class="cls-1" d="M425.08,257.87A5.92,5.92,0,1,1,431,252,5.94,5.94,0,0,1,425.08,257.87Zm0-9.7a3.78,3.78,0,1,0,3.8,3.78A3.79,3.79,0,0,0,425.08,248.17Z"/><path class="cls-1" d="M386,236.23a8.25,8.25,0,1,1,8.29-8.25A8.27,8.27,0,0,1,386,236.23Zm0-14.36a6.11,6.11,0,1,0,6.14,6.11A6.13,6.13,0,0,0,386,221.87Z"/><path class="cls-1" d="M387.75,269.31H349.21a7.77,7.77,0,0,0-7.78,7.74v41.16a7.78,7.78,0,0,0,7.78,7.75h38.54a7.77,7.77,0,0,0,7.77-7.75V277.05A7.77,7.77,0,0,0,387.75,269.31Zm-39.87,7.74a1.33,1.33,0,0,1,1.33-1.32h38.54a1.33,1.33,0,0,1,1.33,1.32v31h-41.2Zm41.2,41.16a1.34,1.34,0,0,1-1.33,1.33H349.21a1.34,1.34,0,0,1-1.33-1.33v-4.79h41.2Z"/><path class="cls-1" d="M422.5,269.31H172.79a11.09,11.09,0,0,0-3.72,21.55v8.73a54.16,54.16,0,0,0,28.54,47.63h-5.9a.91.91,0,0,0-.91.91v6a.91.91,0,0,0,.91.91H404.84a.91.91,0,0,0,.91-.91v-6a.91.91,0,0,0-.91-.91h-5.91a54.16,54.16,0,0,0,28.54-47.63v-9.26a11.08,11.08,0,0,0-5-21ZM421,299.59a47.87,47.87,0,0,1-45,47.63c-1,.06-1.94.09-2.92.09H223.44c-1,0-2,0-2.92-.09a47.87,47.87,0,0,1-45-47.63v-8.1h170v-6.42H172.79a4.67,4.67,0,1,1,0-9.34H422.5a4.67,4.67,0,1,1,0,9.34H390.65v6.42H421Z"/><path class="cls-1" d="M376,347.22c-1,.06-1.94.09-2.92.09H223.44c-1,0-2,0-2.92-.09Z"/></svg>