<svg id="Слой_1" data-name="Слой 1" xmlns="http://www.w3.org/2000/svg" viewBox="0 0 595.28 500.58"><defs><style>.cls-1{fill:#5b5b5b;}</style></defs><path class="cls-1" d="M296.72,282.37a63.9,63.9,0,1,1,63.89-63.89A64,64,0,0,1,296.72,282.37Zm0-113a49.16,49.16,0,1,0,49.14,49.16A49.21,49.21,0,0,0,296.72,169.32Z"/><path class="cls-1" d="M401.82,364.36V352.92c0-29.64-26.91-53.68-60.09-53.68H253.54c-33.18,0-60.08,24-60.08,53.68v11.44Z"/><path class="cls-1" d="M263.78,223.4a4.92,4.92,0,0,1-4.92-4.92,37.9,37.9,0,0,1,37.86-37.86,4.92,4.92,0,0,1,0,9.83,28.06,28.06,0,0,0-28,28A4.91,4.91,0,0,1,263.78,223.4Z"/></svg>