<svg id="Слой_1" data-name="Слой 1" xmlns="http://www.w3.org/2000/svg" viewBox="0 0 595.28 500.58"><defs><style>.cls-1{fill:#5b5b5b;}</style></defs><path class="cls-1" d="M371.05,240.11a1.38,1.38,0,0,0-.19-.66,4.5,4.5,0,0,0-.43-.88c-.07-.06-.07-.11-.13-.17a5.37,5.37,0,0,0-1.79-1.43L312,203.33a5.45,5.45,0,0,0-5.49,0L249.9,237a5.37,5.37,0,0,0-1.79,1.43c-.07.06-.07.11-.13.17a4,4,0,0,0-.43.88,1.38,1.38,0,0,0-.19.66,3.29,3.29,0,0,0-.06.77v58.69a4.27,4.27,0,0,0,2.16,3.64l56.93,34.52a5.51,5.51,0,0,0,5.62,0L369,303.21a4.27,4.27,0,0,0,2.16-3.64V240.88A3.29,3.29,0,0,0,371.05,240.11Zm-66.82,85.61-47.05-28.46v-48l47.05,28.46Zm4.94-55.66-48.1-29.13,48.1-28.57,48.17,28.57Zm52.06,27.2-47.05,28.41v-48l47.05-28.46Z"/><path class="cls-1" d="M389.32,379.1H365.48V365h23.84a17.05,17.05,0,0,0,17-17V315.13h14.15v32.79A31.22,31.22,0,0,1,389.32,379.1Z"/><path class="cls-1" d="M420.51,216.55H406.36V183.44a17.05,17.05,0,0,0-17-17H365.48V152.25h23.84a31.22,31.22,0,0,1,31.19,31.19Z"/><path class="cls-1" d="M253.8,379.1h-29a31.22,31.22,0,0,1-31.19-31.18V315.13h14.15v32.79a17.05,17.05,0,0,0,17,17h29Z"/><path class="cls-1" d="M207.81,216.55H193.66V183.44a31.22,31.22,0,0,1,31.19-31.19h29V166.4h-29a17.05,17.05,0,0,0-17,17Z"/></svg>