<svg id="Слой_1" data-name="Слой 1" xmlns="http://www.w3.org/2000/svg" viewBox="0 0 595.28 500.58"><defs><style>.cls-1{fill:#5b5b5b;}</style></defs><path class="cls-1" d="M398.94,339.58l-63.89-63.95a16.54,16.54,0,0,0-2.05-1.72,78.42,78.42,0,1,0-20,19.18,11.88,11.88,0,0,0,2,2.58l64,63.89a14.12,14.12,0,1,0,20-20ZM206,228.28a63.86,63.86,0,1,1,63.82,63.82A63.91,63.91,0,0,1,206,228.28Z"/><path class="cls-1" d="M221.7,236.55a3.53,3.53,0,0,1-3.53-3.53,55.49,55.49,0,0,1,55.43-55.44,3.54,3.54,0,0,1,0,7.07A48.42,48.42,0,0,0,225.24,233,3.53,3.53,0,0,1,221.7,236.55Z"/></svg>