<svg id="Слой_1" data-name="Слой 1" xmlns="http://www.w3.org/2000/svg" viewBox="0 0 595.28 500.58"><defs><style>.cls-1{fill:#5b5b5b;}</style></defs><path class="cls-1" d="M341.44,285.64l-76.23-60.3c-7.35-5.82-17.89-4.85-23.48,2.17L240,229.65l-3.15-2.44c-5.37-4.25-13.56-2.92-18.25,3l-12.9,16.17c-4.69,5.88-4.14,14.12,1.24,18.38l44.23,34.81,0,0a9.19,9.19,0,0,1,1.49,12.94l-2.63,3.3-8.38-6.63L208.4,350.89a13.21,13.21,0,0,0,2.14,18.63,13.39,13.39,0,0,0,18.74-2.11l33.29-41.73-8.37-6.62,2.63-3.3a14.42,14.42,0,0,0-2.34-20.33l0,0L210.24,260.6c-3.1-2.45-3.27-7.38-.39-11l12.9-16.17c2.88-3.61,7.75-4.56,10.86-2.1l3.13,2.42-4.43,5.55c-5.59,7-4.16,17.45,3.19,23.27l76.23,60.3c7.35,5.81,17.88,4.84,23.48-2.17l9.42-11.81C350.22,301.89,348.79,291.45,341.44,285.64Zm-1.13,19.85-9.41,11.8A11.33,11.33,0,0,1,315,318.76l-76.23-60.3a11.22,11.22,0,0,1-2.15-15.74l9.41-11.8a11.33,11.33,0,0,1,15.89-1.47l76.23,60.3A11.22,11.22,0,0,1,340.31,305.49Z"/><rect class="cls-1" x="265.12" y="168.79" width="30.83" height="30.7" rx="1.42"/><rect class="cls-1" x="314.8" y="168.79" width="30.83" height="30.7" rx="1.41"/><rect class="cls-1" x="362.69" y="168.79" width="30.83" height="30.7" rx="1.43"/><rect class="cls-1" x="314.8" y="214.85" width="30.83" height="30.7" rx="1.4"/><rect class="cls-1" x="362.69" y="214.85" width="30.83" height="30.7" rx="1.42"/><rect class="cls-1" x="362.69" y="260.91" width="30.83" height="30.7" rx="1.42"/></svg>