<svg id="Слой_1" data-name="Слой 1" xmlns="http://www.w3.org/2000/svg" viewBox="0 0 595.28 500.58"><defs><style>.cls-1{fill:#5b5b5b;}</style></defs><path class="cls-1" d="M297.63,380.49a40.62,40.62,0,0,1-20.91-5.8l-97.28-58.15a15.81,15.81,0,0,1,0-27.15l6.05-3.62,5.32,8.81-6.06,3.62a5.54,5.54,0,0,0,0,9.53L282,365.88a30.31,30.31,0,0,0,31.5-.18L410.82,306a5,5,0,0,0-.07-8.63l-8.46-5,5.27-8.83,8.46,5a15.29,15.29,0,0,1,.22,26.22l-97.3,59.72A40.73,40.73,0,0,1,297.63,380.49Z"/><polygon class="cls-1" points="190.81 294.58 185.5 285.77 187.9 284.33 193.21 293.14 190.81 294.58"/><path class="cls-1" d="M297.63,352.78a40.65,40.65,0,0,1-20.91-5.8l-97.28-58.16a15.8,15.8,0,0,1,0-27.14L190.68,255l5.31,8.81-11.24,6.72a5.54,5.54,0,0,0,0,9.53L282,338.17a30.31,30.31,0,0,0,31.5-.18l97.29-59.72a5,5,0,0,0-.07-8.63l-12-7.13,5.27-8.83,12,7.13a15.27,15.27,0,0,1,.22,26.2l-97.3,59.73A40.73,40.73,0,0,1,297.63,352.78Z"/><path class="cls-1" d="M297.63,321a40.62,40.62,0,0,1-20.91-5.8l-97.28-58.15a15.81,15.81,0,0,1,0-27.15l96.64-57.77a42.62,42.62,0,0,1,43.61-.1L416,229a15.28,15.28,0,0,1,.22,26.21L318.94,315A40.73,40.73,0,0,1,297.63,321ZM282,306.4a30.31,30.31,0,0,0,31.5-.19l97.29-59.72a5,5,0,0,0-.07-8.63l-96.33-57a32.3,32.3,0,0,0-33,.08l-96.64,57.77a5.54,5.54,0,0,0,0,9.53Z"/><path class="cls-1" d="M248,231.77l-10.61-6.34a1.17,1.17,0,0,1,0-2l61.83-36.68a4.09,4.09,0,0,1,4.18,0L313.87,193a1.11,1.11,0,0,1,0,1.9L252,231.74A3.87,3.87,0,0,1,248,231.77Z"/><path class="cls-1" d="M301,263.2l-10.61-6.35a1.16,1.16,0,0,1,0-2l61.82-36.67a4.09,4.09,0,0,1,4.18,0l10.51,6.22a1.11,1.11,0,0,1,0,1.9L305,263.17A3.87,3.87,0,0,1,301,263.2Z"/><path class="cls-1" d="M245.42,266.06l-10.61-6.34a1.16,1.16,0,0,1,0-2l61.83-36.67a4.07,4.07,0,0,1,4.18,0l10.5,6.21a1.11,1.11,0,0,1,0,1.9L249.44,266A3.89,3.89,0,0,1,245.42,266.06Z"/><path class="cls-1" d="M296.08,296l-10.6-6.35a1.16,1.16,0,0,1,0-2L347.3,251a4.09,4.09,0,0,1,4.18,0L362,257.18a1.11,1.11,0,0,1,0,1.9L300.1,296A3.87,3.87,0,0,1,296.08,296Z"/></svg>