<svg id="Слой_1" data-name="Слой 1" xmlns="http://www.w3.org/2000/svg" viewBox="0 0 595.28 500.58"><defs><style>.cls-1{fill:#5b5b5b;}</style></defs><path class="cls-1" d="M316.82,170.67v11.21a59.37,59.37,0,0,0-37.89-.21v-11a12.57,12.57,0,0,1,12.56-12.57h12.76A12.57,12.57,0,0,1,316.82,170.67Z"/><path class="cls-1" d="M271.11,355.79c2.37,12.17,13.45,21.37,26.76,21.37s24.39-9.2,26.77-21.37Z"/><path class="cls-1" d="M375.58,306.08a24.68,24.68,0,0,1-8.93-13,18.11,18.11,0,0,1-.73-5.16l-.13-27.11.13-4.7A65.54,65.54,0,0,0,347,208.2a69.73,69.73,0,0,0-99.93,0,65.59,65.59,0,0,0-18.92,47.95l.14,4.56L228.16,288a15.67,15.67,0,0,1-.72,5.16,25.82,25.82,0,0,1-9.59,13.69,20.64,20.64,0,0,0-11.71,18.45,20.38,20.38,0,0,0,20.37,20.37H368.77a20.36,20.36,0,0,0,6.81-39.55Zm-134-8.73a32.39,32.39,0,0,0,1.32-9.32l.14-27.45-.14-4.83a51.05,51.05,0,0,1,14.75-37.3,55,55,0,0,1,78.77,0,51,51,0,0,1,14.74,37.3l-.13,5,.13,27.25a32.75,32.75,0,0,0,1.33,9.32,37.7,37.7,0,0,0,3.17,7.54H238.41A37.16,37.16,0,0,0,241.59,297.35Zm131.15,31.88a5.55,5.55,0,0,1-4,1.65H226.51a5.62,5.62,0,0,1-5.62-5.62,5.43,5.43,0,0,1,1.65-4,5.59,5.59,0,0,1,4-1.65H368.77a5.62,5.62,0,0,1,5.62,5.62A5.47,5.47,0,0,1,372.74,329.23Z"/></svg>